<?xml version="1.0" encoding="iso-8859-1"?>
<!-- Generator: Adobe Illustrator 19.0.0, SVG Export Plug-In . SVG Version: 6.00 Build 0)  -->
<svg version="1.1" id="Layer_1" xmlns="http://www.w3.org/2000/svg" xmlns:xlink="http://www.w3.org/1999/xlink" x="0px" y="0px"
	 viewBox="0 0 512 512" style="enable-background:new 0 0 512 512;" xml:space="preserve">
<circle style="fill:#0575A5;" cx="256" cy="256" r="256"/>
<path style="fill:#025E90;" d="M391.314,142.446c-0.108-0.113-0.182-0.218-0.289-0.294c-1.208-1.132-2.783-1.825-4.536-1.825
	H125.553c-3.699,0-6.694,3.034-6.694,6.692v168.445c0,1.759,0.694,3.366,1.83,4.534c0.069,0.113,0.182,0.22,0.292,0.294
	l186.506,186.524c114.509-23.375,201.114-123.22,204.334-243.86L391.314,142.446z"/>
<polygon style="fill:#E1EFFA;" points="291.725,366.323 220.25,366.323 229.332,322.14 282.642,322.14 "/>
<polygon style="fill:#B6D4ED;" points="291.725,366.323 282.642,322.14 229.332,322.14 273.513,366.323 "/>
<rect x="201.114" y="366.31" style="fill:#FFFFFF;" width="109.74" height="5.343"/>
<path style="fill:#34495E;" d="M125.535,140.334c-3.681,0-6.679,3.011-6.679,6.679v168.448c0,3.681,2.998,6.676,6.679,6.676h260.938
	c3.663,0,6.671-2.998,6.671-6.676V147.013c0-3.671-3.011-6.679-6.671-6.679H125.535z"/>
<rect x="132.718" y="154.189" style="fill:#FF8E31;" width="246.554" height="154.086"/>
<g>
	<path style="fill:#FFFFFF;" d="M243.146,249.247h-37.422c-1.303,0-2.542-0.407-3.589-1.183c-1.055-0.783-1.81-1.851-2.181-3.092
		l-12.104-39.913h-18.68v-7.235h19.579c1.303,0,2.542,0.407,3.589,1.185c1.055,0.781,1.812,1.851,2.186,3.092l12.096,39.91h35.633
		l7.462-24.599h-45.514l-2.191-7.237h49.331c1.897,0,3.702,0.911,4.838,2.44c1.129,1.528,1.482,3.523,0.927,5.34l-8.189,27.011
		c-0.374,1.249-1.129,2.317-2.163,3.09C245.701,248.84,244.457,249.247,243.146,249.247z M243.172,222.336h-37.481l1.495,4.918
		h34.501L243.172,222.336z M240.202,232.174l-1.495,4.923h-28.544l-1.485-4.923H240.202z M211.057,251.543
		c-3.625,0-6.561,2.929-6.561,6.564c0,3.62,2.934,6.561,6.561,6.561c3.625,0,6.561-2.941,6.561-6.561
		C217.618,254.472,214.679,251.543,211.057,251.543z M237.814,251.543c-3.625,0-6.559,2.929-6.559,6.564
		c0,3.62,2.934,6.556,6.559,6.556c3.63,0,6.566-2.934,6.566-6.556C244.38,254.472,241.444,251.543,237.814,251.543z"/>
	<rect x="265.011" y="197.837" style="fill:#FFFFFF;" width="77.832" height="16.712"/>
	<rect x="265.011" y="225.126" style="fill:#FFFFFF;" width="77.832" height="16.722"/>
</g>
<g>
	<circle style="fill:#34495E;" cx="276.019" cy="233.165" r="3.023"/>
	<path style="fill:#34495E;" d="M290.207,233.172c0,1.667-1.359,3.028-3.026,3.028c-1.679,0-3.039-1.359-3.039-3.028
		c0-1.672,1.357-3.021,3.039-3.021C288.847,230.152,290.207,231.501,290.207,233.172z"/>
	<circle style="fill:#34495E;" cx="298.342" cy="233.165" r="3.026"/>
	<path style="fill:#34495E;" d="M312.512,233.172c0,1.667-1.347,3.028-3.013,3.028c-1.679,0-3.031-1.359-3.031-3.028
		c0-1.672,1.349-3.021,3.031-3.021C311.165,230.152,312.512,231.501,312.512,233.172z"/>
	<path style="fill:#34495E;" d="M323.681,233.172c0,1.667-1.354,3.028-3.028,3.028c-1.664,0-3.031-1.359-3.031-3.028
		c0-1.672,1.364-3.021,3.031-3.021C322.324,230.152,323.681,231.501,323.681,233.172z"/>
	<circle style="fill:#34495E;" cx="331.802" cy="233.165" r="3.034"/>
</g>
<g>
	<rect x="272.512" y="255.821" style="fill:#FFFFFF;" width="7.219" height="1.014"/>
	
		<rect x="273.909" y="250.38" transform="matrix(-0.707 -0.7072 0.7072 -0.707 296.2999 624.5219)" style="fill:#FFFFFF;" width="7.219" height="1.006"/>
	
		<rect x="273.917" y="261.267" transform="matrix(-0.7073 0.7069 -0.7069 -0.7073 658.8696 250.7437)" style="fill:#FFFFFF;" width="7.217" height="1.014"/>
	<rect x="328.09" y="255.821" style="fill:#FFFFFF;" width="7.219" height="1.014"/>
	
		<rect x="326.652" y="250.357" transform="matrix(0.7074 -0.7068 0.7068 0.7074 -80.6765 306.8331)" style="fill:#FFFFFF;" width="7.224" height="1.006"/>
	
		<rect x="326.664" y="261.262" transform="matrix(0.7076 0.7066 -0.7066 0.7076 281.5376 -156.8348)" style="fill:#FFFFFF;" width="7.222" height="1.014"/>
</g>
<path style="fill:#0575A5;" d="M323.689,262.671c0,1.093-0.888,1.989-1.984,1.989h-35.584c-1.091,0-1.987-0.899-1.987-1.989v-12.723
	c0-1.085,0.899-1.981,1.987-1.981h35.584c1.098,0,1.984,0.896,1.984,1.981V262.671z"/>
<path style="fill:#479ABD;" d="M323.689,256.312v-6.362c0-1.085-0.888-1.981-1.984-1.981h-35.584c-1.091,0-1.987,0.896-1.987,1.981
	v6.362H323.689z"/>
<path style="fill:#FFFFFF;" d="M298.888,256.054c0.279-0.125,0.497-0.317,0.668-0.561c0.161-0.261,0.243-0.532,0.243-0.837
	c0-0.287-0.067-0.532-0.192-0.768c-0.136-0.22-0.31-0.397-0.499-0.538c-0.21-0.133-0.433-0.225-0.676-0.266
	c-0.264-0.046-0.63-0.064-1.144-0.064h-2.591v6.477h2.197c0.832-0.008,1.362-0.023,1.579-0.044c0.343-0.044,0.648-0.138,0.873-0.305
	c0.238-0.164,0.435-0.394,0.568-0.671c0.136-0.274,0.205-0.571,0.205-0.858c0-0.376-0.102-0.694-0.32-0.975
	C299.581,256.361,299.279,256.164,298.888,256.054z M296,254.093h0.753c0.607,0,0.991,0.005,1.114,0.028
	c0.223,0.028,0.379,0.1,0.494,0.22c0.113,0.131,0.169,0.292,0.169,0.489c0,0.21-0.069,0.379-0.2,0.509
	c-0.131,0.131-0.307,0.212-0.52,0.236c-0.131,0.013-0.451,0.02-0.945,0.02H296L296,254.093L296,254.093z M298.586,258.107
	c-0.131,0.136-0.284,0.223-0.484,0.256c-0.118,0.021-0.42,0.041-0.886,0.041H296v-1.728h1.055c0.596,0,0.983,0.028,1.165,0.092
	c0.169,0.056,0.31,0.161,0.407,0.292c0.092,0.138,0.138,0.307,0.138,0.497C298.765,257.787,298.703,257.971,298.586,258.107z
	 M305.068,253.018h1.308v3.4c0,0.781-0.036,1.329-0.113,1.644c-0.064,0.323-0.197,0.596-0.376,0.814
	c-0.2,0.218-0.445,0.407-0.776,0.527c-0.315,0.138-0.727,0.21-1.234,0.21c-0.632,0-1.093-0.082-1.413-0.225
	c-0.323-0.148-0.563-0.323-0.755-0.561c-0.182-0.218-0.31-0.463-0.371-0.714c-0.079-0.369-0.125-0.916-0.125-1.646v-3.448h1.306
	v3.512c0,0.55,0.015,0.914,0.049,1.08c0.064,0.261,0.184,0.471,0.394,0.64c0.218,0.154,0.507,0.23,0.868,0.23
	c0.371,0,0.65-0.061,0.84-0.225c0.192-0.151,0.305-0.335,0.333-0.556c0.054-0.22,0.067-0.589,0.067-1.098V253.018L305.068,253.018z
	 M313.134,253.018l-2.378,3.75v2.726h-1.308v-2.726l-2.373-3.75h1.539l1.523,2.563l1.49-2.563L313.134,253.018L313.134,253.018z"/>
<polygon style="fill:#34495E;" points="328.028,272.62 328.028,270.597 327.03,270.597 327.03,269.588 326.011,269.588 
	326.011,268.577 324.992,268.577 324.992,267.564 323.988,267.564 323.988,266.568 322.977,266.568 322.977,265.541 
	321.974,265.541 321.974,264.538 320.968,264.538 320.968,263.532 319.949,263.532 319.949,262.52 318.943,262.52 318.943,261.509 
	317.929,261.509 317.929,260.498 316.923,260.498 316.923,259.494 315.904,259.494 315.904,276.657 317.929,276.657 
	317.929,275.648 318.943,275.648 318.943,274.632 319.949,274.632 319.949,273.62 320.968,273.62 320.968,275.648 321.974,275.648 
	321.974,277.663 322.977,277.663 322.977,278.682 324.992,278.682 324.992,277.663 326.011,277.663 326.011,275.648 
	324.992,275.648 324.992,273.62 323.988,273.62 323.988,272.62 "/>
<g>
</g>
<g>
</g>
<g>
</g>
<g>
</g>
<g>
</g>
<g>
</g>
<g>
</g>
<g>
</g>
<g>
</g>
<g>
</g>
<g>
</g>
<g>
</g>
<g>
</g>
<g>
</g>
<g>
</g>
</svg>
