<?xml version="1.0" encoding="UTF-8" standalone="no"?>
<svg
   xmlns:dc="http://purl.org/dc/elements/1.1/"
   xmlns:cc="http://creativecommons.org/ns#"
   xmlns:rdf="http://www.w3.org/1999/02/22-rdf-syntax-ns#"
   xmlns:svg="http://www.w3.org/2000/svg"
   xmlns="http://www.w3.org/2000/svg"
   id="svg5088"
   version="1.1"
   viewBox="0 0 22.321058 22.321055"
   height="22.321058mm"
   width="22.321058mm">
  <defs
     id="defs5082">
    <clipPath
       id="clipPath26"
       clipPathUnits="userSpaceOnUse">
      <path
         id="path24"
         d="m 46.87,357.72 h 57.62 v -61.3 H 46.87 Z" />
    </clipPath>
    <clipPath
       id="clipPath68"
       clipPathUnits="userSpaceOnUse">
      <path
         id="path66"
         d="m 134.76,353.97 h 53.44 v -53.8 h -53.44 z" />
    </clipPath>
    <clipPath
       id="clipPath92"
       clipPathUnits="userSpaceOnUse">
      <path
         id="path90"
         d="m 223.45,354.72 h 47.18 v -55.29 h -47.18 z" />
    </clipPath>
    <clipPath
       id="clipPath340"
       clipPathUnits="userSpaceOnUse">
      <path
         id="path338"
         d="m 297.63,333.83 h 56.08 V 295.5 h -56.08 z" />
    </clipPath>
    <clipPath
       id="clipPath220"
       clipPathUnits="userSpaceOnUse">
      <path
         id="path218"
         d="M 378.05,353.71 H 427.8 V 300.43 H 378.05 Z" />
    </clipPath>
    <clipPath
       id="clipPath1224"
       clipPathUnits="userSpaceOnUse">
      <path
         id="path1222"
         d="m 450.12,353.2 h 52.25 v -52.25 h -52.25 z" />
    </clipPath>
    <clipPath
       id="clipPath904"
       clipPathUnits="userSpaceOnUse">
      <path
         id="path902"
         d="m 520.935,347.63 h 55.64 v -41.12 h -55.64 z" />
    </clipPath>
    <clipPath
       id="clipPath1512"
       clipPathUnits="userSpaceOnUse">
      <path
         id="path1510"
         d="m 590.789,353.968 h 54.478 v -53.795 h -54.478 z" />
    </clipPath>
    <clipPath
       id="clipPath384"
       clipPathUnits="userSpaceOnUse">
      <path
         id="path382"
         d="M 46.97,277.28 H 104.4 V 231.61 H 46.97 Z" />
    </clipPath>
    <clipPath
       id="clipPath312"
       clipPathUnits="userSpaceOnUse">
      <path
         id="path310"
         d="m 127.4,282.06 h 68.16 V 240.85 H 127.4 Z" />
    </clipPath>
    <clipPath
       id="clipPath544"
       clipPathUnits="userSpaceOnUse">
      <path
         id="path542"
         d="m 208.18,291.795 h 77.715 V 231.114 H 208.18 Z" />
    </clipPath>
    <clipPath
       id="clipPath144"
       clipPathUnits="userSpaceOnUse">
      <path
         id="path142"
         d="m 309.62,285.63 h 32.112 V 237.28 H 309.62 Z" />
    </clipPath>
    <clipPath
       id="clipPath988"
       clipPathUnits="userSpaceOnUse">
      <path
         id="path986"
         d="m 381.1,282.73 h 43.66 V 240.17 H 381.1 Z" />
    </clipPath>
    <clipPath
       id="clipPath790"
       clipPathUnits="userSpaceOnUse">
      <path
         id="path788"
         d="m 453.3,278.98 h 46.82 V 242.6 H 453.3 Z" />
    </clipPath>
    <clipPath
       id="clipPath1144"
       clipPathUnits="userSpaceOnUse">
      <path
         id="path1142"
         d="m 523.77,273.9 h 51.05 v -26.22 h -51.05 z" />
    </clipPath>
    <clipPath
       id="clipPath1390"
       clipPathUnits="userSpaceOnUse">
      <path
         id="path1388"
         d="m 595.56,285.6 h 44.93 v -45.9 h -44.93 z" />
    </clipPath>
    <clipPath
       id="clipPath1052"
       clipPathUnits="userSpaceOnUse">
      <path
         id="path1050"
         d="M 54.2225,216.55 H 97.1436 V 173.66 H 54.2225 Z" />
    </clipPath>
    <clipPath
       id="clipPath762"
       clipPathUnits="userSpaceOnUse">
      <path
         id="path760"
         d="M 133.67,214.23 H 189.3 V 175.98 H 133.67 Z" />
    </clipPath>
    <clipPath
       id="clipPath276"
       clipPathUnits="userSpaceOnUse">
      <path
         id="path274"
         d="m 230.14,218.955 h 33.8 V 165.25 h -33.8 z" />
    </clipPath>
    <clipPath
       id="clipPath628"
       clipPathUnits="userSpaceOnUse">
      <path
         id="path626"
         d="m 297.63,227.63 h 56.09 v -71.05 h -56.09 z" />
    </clipPath>
    <clipPath
       id="clipPath420"
       clipPathUnits="userSpaceOnUse">
      <path
         id="path418"
         d="m 378.62,220.24 h 48.61 v -54.37 h -48.61 z" />
    </clipPath>
    <clipPath
       id="clipPath1072"
       clipPathUnits="userSpaceOnUse">
      <path
         id="path1070"
         d="m 447.51,212.1 h 58.4 v -44.61 h -58.4 z" />
    </clipPath>
    <clipPath
       id="clipPath1188"
       clipPathUnits="userSpaceOnUse">
      <path
         id="path1186"
         d="m 533.95,216.9 h 30.68 v -46.91 h -30.68 z" />
    </clipPath>
    <clipPath
       id="clipPath1478"
       clipPathUnits="userSpaceOnUse">
      <path
         id="path1476"
         d="M 593.15,205.25 H 642.9 V 175.81 H 593.15 Z" />
    </clipPath>
    <clipPath
       id="clipPath696"
       clipPathUnits="userSpaceOnUse">
      <path
         id="path694"
         d="m 41.9,158.92 h 63.56 V 108.56 H 41.9 Z" />
    </clipPath>
    <clipPath
       id="clipPath834"
       clipPathUnits="userSpaceOnUse">
      <path
         id="path832"
         d="m 128.24,150.16 h 66.48 v -41.6 h -66.48 z" />
    </clipPath>
    <clipPath
       id="clipPath870"
       clipPathUnits="userSpaceOnUse">
      <path
         id="path868"
         d="m 222.85,145.194 h 48.38 V 108.56 h -48.38 z" />
    </clipPath>
    <clipPath
       id="clipPath946"
       clipPathUnits="userSpaceOnUse">
      <path
         id="path944"
         d="M 303.15,145.89 H 348.2 V 108.56 H 303.15 Z" />
    </clipPath>
    <clipPath
       id="clipPath1016"
       clipPathUnits="userSpaceOnUse">
      <path
         id="path1014"
         d="M 389.46,153.23 H 416.4 V 108.56 H 389.46 Z" />
    </clipPath>
    <clipPath
       id="clipPath1108"
       clipPathUnits="userSpaceOnUse">
      <path
         id="path1106"
         d="m 456.76,146.16 h 39.89 v -37.63 h -39.89 z" />
    </clipPath>
    <clipPath
       id="clipPath1354"
       clipPathUnits="userSpaceOnUse">
      <path
         id="path1352"
         d="m 530.46,152.62 h 37.66 v -37.38 h -37.66 z" />
    </clipPath>
    <clipPath
       id="clipPath1560"
       clipPathUnits="userSpaceOnUse">
      <path
         id="path1558"
         d="m 589.99,163.3 h 56.08 v -56.08 h -56.08 z" />
    </clipPath>
  </defs>
  <metadata
     id="metadata5085">
    <rdf:RDF>
      <cc:Work
         rdf:about="">
        <dc:format>image/svg+xml</dc:format>
        <dc:type
           rdf:resource="http://purl.org/dc/dcmitype/StillImage" />
        <dc:title></dc:title>
      </cc:Work>
    </rdf:RDF>
  </metadata>
  <g
     transform="translate(-105.51133,-97.79666)"
     id="layer1">
    <g
       id="g9941"
       transform="matrix(0.35277777,0,0,-0.35277777,-101.35549,156.67384)">
      <g
         id="g1554">
        <g
           id="g1556" />
        <g
           id="g1632">
          <g
             clip-path="url(#clipPath1560)"
             id="g1630">
            <g
               transform="translate(605.3799,121.1504)"
               id="g1564">
              <path
                 d="m 0,0 c 0.59,-1.96 1.28,-3.78 2.09,-5.41 1.03,-2.04 2.221,-3.79 3.56,-5.181 -4.27,1.2 -8.1,3.49 -11.16,6.551 -0.429,0.43 -0.84,0.87 -1.23,1.33 0.33,0.189 0.64,0.38 1,0.55 1.68,0.84 3.62,1.569 5.74,2.16"
                 style="fill:#ff9e00;fill-opacity:1;fill-rule:nonzero;stroke:none"
                 id="path1562" />
            </g>
            <g
               transform="translate(637.4697,118.5098)"
               id="g1568">
              <path
                 d="M 0,0 C -0.41,-0.479 -0.84,-0.96 -1.29,-1.399 -4.35,-4.46 -8.17,-6.75 -12.45,-7.95 c 2.421,2.5 4.36,6.19 5.68,10.62 C -4.2,1.96 -1.91,1.05 0,0"
                 style="fill:#ff9e00;fill-opacity:1;fill-rule:nonzero;stroke:none"
                 id="path1566" />
            </g>
            <g
               transform="translate(622.4902,111.4199)"
               id="g1572">
              <path
                 d="M 0,0 C -1.07,-0.91 -2.17,-1.47 -3.28,-1.71 V 11.37 C -0.03,11.311 3.069,10.94 5.899,10.33 5.35,8.521 4.71,6.85 3.979,5.38 2.81,3.05 1.45,1.22 0,0"
                 style="fill:#ff9e00;fill-opacity:1;fill-rule:nonzero;stroke:none"
                 id="path1570" />
            </g>
            <g
               transform="translate(616.8398,122.7695)"
               id="g1576">
              <path
                 d="m 0,0 v -13.06 c -1.109,0.241 -2.2,0.8 -3.28,1.71 -2.38,1.981 -4.47,5.63 -5.88,10.3 2.82,0.611 5.91,0.971 9.16,1.05"
                 style="fill:#ff9e00;fill-opacity:1;fill-rule:nonzero;stroke:none"
                 id="path1574" />
            </g>
            <g
               transform="translate(599.8701,153.4199)"
               id="g1580">
              <path
                 d="M 0,0 C 3.06,3.05 6.89,5.34 11.17,6.54 8.77,4.061 6.84,0.41 5.52,-3.979 3.37,-3.39 1.42,-2.66 -0.271,-1.81 -0.601,-1.65 -0.89,-1.47 -1.2,-1.3 -0.811,-0.86 -0.41,-0.42 0,0"
                 style="fill:#ff9e00;fill-opacity:1;fill-rule:nonzero;stroke:none"
                 id="path1578" />
            </g>
            <g
               transform="translate(603.4404,134.0801)"
               id="g1584">
              <path
                 d="m 0,0 c 0.09,-3.79 0.55,-7.38 1.319,-10.63 -2.87,-0.8 -5.439,-1.85 -7.609,-3.12 -2.801,3.91 -4.53,8.63 -4.771,13.75 z"
                 style="fill:#ff9e00;fill-opacity:1;fill-rule:nonzero;stroke:none"
                 id="path1582" />
            </g>
            <g
               transform="translate(616.8398,134.0801)"
               id="g1588">
              <path
                 d="m 0,0 v -8.93 c -3.46,-0.091 -6.76,-0.48 -9.79,-1.14 -0.73,3.06 -1.18,6.47 -1.25,10.07 z"
                 style="fill:#ff9e00;fill-opacity:1;fill-rule:nonzero;stroke:none"
                 id="path1586" />
            </g>
            <g
               transform="translate(619.21,134.0801)"
               id="g1592">
              <path
                 d="M 0,0 H 11.03 C 10.95,-3.59 10.521,-6.99 9.79,-10.04 6.76,-9.39 3.46,-9.01 0,-8.94 Z"
                 style="fill:#ff9e00;fill-opacity:1;fill-rule:nonzero;stroke:none"
                 id="path1590" />
            </g>
            <g
               transform="translate(632.6201,134.0801)"
               id="g1596">
              <path
                 d="M 0,0 H 11.05 C 10.82,-5.1 9.11,-9.8 6.33,-13.69 5.899,-13.44 5.46,-13.2 5,-12.97 3.12,-12.04 1,-11.24 -1.311,-10.61 -0.54,-7.36 -0.09,-3.78 0,0"
                 style="fill:#ff9e00;fill-opacity:1;fill-rule:nonzero;stroke:none"
                 id="path1594" />
            </g>
            <g
               transform="translate(636.1797,153.4199)"
               id="g1600">
              <path
                 d="M 0,0 C 0.431,-0.43 0.84,-0.88 1.23,-1.34 -0.67,-2.39 -2.96,-3.29 -5.52,-4 -6.1,-2.06 -6.79,-0.25 -7.6,1.36 -8.62,3.4 -9.81,5.15 -11.16,6.54 -6.88,5.33 -3.06,3.05 0,0"
                 style="fill:#ff9e00;fill-opacity:1;fill-rule:nonzero;stroke:none"
                 id="path1598" />
            </g>
            <g
               transform="translate(643.6699,136.4404)"
               id="g1604">
              <path
                 d="m 0,0 h -11.06 c -0.08,3.81 -0.55,7.42 -1.33,10.689 2.31,0.63 4.43,1.43 6.3,2.361 0.46,0.229 0.89,0.47 1.32,0.72 C -1.97,9.859 -0.229,5.13 0,0"
                 style="fill:#ff9e00;fill-opacity:1;fill-rule:nonzero;stroke:none"
                 id="path1602" />
            </g>
            <g
               transform="translate(622.4902,159.1104)"
               id="g1608">
              <path
                 d="m 0,0 c 2.37,-1.98 4.46,-5.62 5.87,-10.25 -2.82,-0.61 -5.9,-0.98 -9.15,-1.04 V 1.699 C -2.17,1.46 -1.07,0.899 0,0"
                 style="fill:#ff9e00;fill-opacity:1;fill-rule:nonzero;stroke:none"
                 id="path1606" />
            </g>
            <g
               transform="translate(616.8398,160.8096)"
               id="g1612">
              <path
                 d="m 0,0 v -12.979 c -3.229,0.08 -6.32,0.429 -9.14,1.04 0.54,1.769 1.17,3.41 1.89,4.849 1.16,2.33 2.53,4.16 3.97,5.391 C -2.2,-0.8 -1.109,-0.239 0,0"
                 style="fill:#ff9e00;fill-opacity:1;fill-rule:nonzero;stroke:none"
                 id="path1610" />
            </g>
            <g
               transform="translate(597.1797,150.2305)"
               id="g1616">
              <path
                 d="M 0,0 C 2.17,-1.25 4.721,-2.301 7.58,-3.08 6.801,-6.36 6.351,-9.98 6.261,-13.79 H -4.8 C -4.56,-8.65 -2.819,-3.91 0,0"
                 style="fill:#ff9e00;fill-opacity:1;fill-rule:nonzero;stroke:none"
                 id="path1614" />
            </g>
            <g
               transform="translate(616.8398,145.46)"
               id="g1620">
              <path
                 d="m 0,0 v -9.02 h -11.03 c 0.08,3.63 0.53,7.06 1.27,10.14 C -6.74,0.47 -3.45,0.08 0,0"
                 style="fill:#ff9e00;fill-opacity:1;fill-rule:nonzero;stroke:none"
                 id="path1618" />
            </g>
            <g
               transform="translate(630.25,136.4404)"
               id="g1624">
              <path
                 d="m 0,0 h -11.04 v 9.02 c 3.46,0.08 6.76,0.459 9.78,1.11 C -0.52,7.06 -0.07,3.619 0,0"
                 style="fill:#ff9e00;fill-opacity:1;fill-rule:nonzero;stroke:none"
                 id="path1622" />
            </g>
            <g
               transform="translate(618.0303,163.2998)"
               id="g1628">
              <path
                 d="m 0,0 c 15.489,0 28.04,-12.55 28.04,-28.04 0,-15.48 -12.551,-28.029 -28.03,-28.04 H 0 c -15.49,0 -28.04,12.55 -28.04,28.04 C -28.04,-12.55 -15.49,0 0,0 m 20.92,-42.91 c 2.78,3.89 4.49,8.591 4.72,13.69 H 14.59 c -0.09,-3.78 -0.54,-7.36 -1.311,-10.61 2.311,-0.63 4.431,-1.43 6.311,-2.359 0.46,-0.231 0.899,-0.471 1.33,-0.721 m 4.72,16.051 c -0.23,5.13 -1.97,9.859 -4.77,13.769 -0.431,-0.25 -0.86,-0.49 -1.32,-0.72 -1.87,-0.93 -3.99,-1.73 -6.3,-2.36 0.779,-3.269 1.25,-6.88 1.33,-10.689 z m -7.491,-19.33 c 0.451,0.439 0.88,0.919 1.29,1.399 -1.91,1.05 -4.2,1.96 -6.769,2.67 -1.32,-4.43 -3.26,-8.12 -5.681,-10.62 4.281,1.2 8.101,3.49 11.16,6.551 M 12.63,-13.88 c 2.559,0.71 4.849,1.61 6.75,2.66 -0.391,0.46 -0.8,0.91 -1.231,1.34 -3.059,3.05 -6.879,5.33 -11.16,6.54 1.351,-1.389 2.54,-3.139 3.561,-5.18 0.809,-1.61 1.5,-3.419 2.08,-5.36 M 1.18,-26.859 H 12.22 C 12.149,-23.24 11.7,-19.8 10.96,-16.729 7.939,-17.38 4.64,-17.76 1.18,-17.84 Z m 9.79,-12.401 c 0.73,3.05 1.16,6.45 1.24,10.04 H 1.18 v -8.94 c 3.46,-0.069 6.759,-0.449 9.79,-1.1 M 8.439,-46.5 c 0.731,1.47 1.371,3.141 1.92,4.95 -2.83,0.611 -5.929,0.981 -9.179,1.04 v -13.08 c 1.11,0.24 2.21,0.8 3.28,1.71 1.45,1.22 2.81,3.05 3.979,5.38 m 1.891,32.061 C 8.92,-9.81 6.83,-6.17 4.46,-4.189 3.39,-3.29 2.29,-2.729 1.18,-2.49 v -12.989 c 3.25,0.059 6.33,0.429 9.15,1.04 M -1.19,-53.59 v 13.06 c -3.25,-0.079 -6.34,-0.44 -9.161,-1.05 1.411,-4.67 3.5,-8.319 5.88,-10.3 1.08,-0.91 2.171,-1.47 3.281,-1.71 m 0,15.441 v 8.929 h -11.04 c 0.07,-3.599 0.52,-7.009 1.25,-10.07 3.03,0.66 6.33,1.05 9.79,1.141 m 0,11.29 v 9.019 c -3.451,0.08 -6.741,0.47 -9.76,1.12 -0.74,-3.08 -1.191,-6.509 -1.271,-10.139 z m 0,11.389 V -2.49 C -2.3,-2.729 -3.391,-3.29 -4.471,-4.189 -5.91,-5.42 -7.28,-7.25 -8.44,-9.58 c -0.72,-1.44 -1.35,-3.08 -1.89,-4.85 2.819,-0.61 5.91,-0.96 9.14,-1.04 m -11.451,1.611 c 1.321,4.389 3.25,8.04 5.651,10.519 -4.281,-1.2 -8.111,-3.49 -11.17,-6.54 -0.41,-0.42 -0.811,-0.86 -1.2,-1.3 0.31,-0.17 0.599,-0.35 0.929,-0.509 1.691,-0.851 3.641,-1.581 5.79,-2.17 M -7,-52.74 c -1.34,1.39 -2.53,3.14 -3.561,5.18 -0.809,1.63 -1.5,3.451 -2.089,5.411 -2.121,-0.591 -4.06,-1.321 -5.741,-2.161 -0.359,-0.169 -0.67,-0.36 -1,-0.549 0.391,-0.46 0.801,-0.901 1.231,-1.33 3.059,-3.061 6.889,-5.351 11.16,-6.551 m -7.59,25.881 c 0.09,3.809 0.54,7.429 1.319,10.71 -2.859,0.779 -5.41,1.83 -7.58,3.08 -2.819,-3.91 -4.559,-8.651 -4.799,-13.79 z m 1.319,-12.991 c -0.769,3.25 -1.229,6.84 -1.319,10.63 h -11.06 c 0.24,-5.12 1.969,-9.84 4.77,-13.75 2.17,1.27 4.739,2.321 7.609,3.12"
                 style="fill:#00607f;fill-opacity:1;fill-rule:nonzero;stroke:none"
                 id="path1626" />
            </g>
          </g>
        </g>
      </g>
      <g
         id="g1634"
         transform="translate(646.0703,135.2598)">
        <path
           d="m 0,0 c 0,15.49 -12.551,28.04 -28.04,28.04 -15.49,0 -28.04,-12.55 -28.04,-28.04 0,-15.49 12.55,-28.04 28.04,-28.04 h 0.01 C -12.551,-28.029 0,-15.479 0,0 Z"
           style="fill:none;stroke:#141414;stroke-width:1.523;stroke-linecap:round;stroke-linejoin:round;stroke-miterlimit:10;stroke-dasharray:none;stroke-opacity:1"
           id="path1636" />
      </g>
      <g
         id="g1638"
         transform="translate(637.6201,121.1104)">
        <path
           d="M 0,0 C -1.88,0.93 -4,1.729 -6.311,2.359 -5.54,5.609 -5.09,9.189 -5,12.97 H 6.05 C 5.82,7.87 4.11,3.17 1.33,-0.721 0.899,-0.471 0.46,-0.23 0,0 Z"
           style="fill:none;stroke:#141414;stroke-width:1.523;stroke-linecap:round;stroke-linejoin:round;stroke-miterlimit:10;stroke-dasharray:none;stroke-opacity:1"
           id="path1640" />
      </g>
      <g
         id="g1642"
         transform="translate(638.9004,150.21)">
        <path
           d="M 0,0 C 2.8,-3.91 4.54,-8.64 4.77,-13.77 H -6.29 c -0.08,3.81 -0.551,7.42 -1.33,10.69 2.309,0.63 4.43,1.43 6.3,2.36 0.46,0.23 0.889,0.47 1.32,0.72 z"
           style="fill:none;stroke:#141414;stroke-width:1.523;stroke-linecap:round;stroke-linejoin:round;stroke-miterlimit:10;stroke-dasharray:none;stroke-opacity:1"
           id="path1644" />
      </g>
      <g
         id="g1646"
         transform="translate(630.25,136.4404)">
        <path
           d="m 0,0 h -11.04 v 9.02 c 3.46,0.08 6.76,0.459 9.78,1.11 C -0.52,7.06 -0.07,3.619 0,0 Z"
           style="fill:none;stroke:#141414;stroke-width:1.523;stroke-linecap:round;stroke-linejoin:round;stroke-miterlimit:10;stroke-dasharray:none;stroke-opacity:1"
           id="path1648" />
      </g>
      <g
         id="g1650"
         transform="translate(619.21,147.8203)">
        <path
           d="M 0,0 V 12.989 C 1.11,12.75 2.21,12.189 3.28,11.29 5.65,9.31 7.74,5.67 9.15,1.04 6.33,0.43 3.25,0.06 0,0 Z"
           style="fill:none;stroke:#141414;stroke-width:1.523;stroke-linecap:round;stroke-linejoin:round;stroke-miterlimit:10;stroke-dasharray:none;stroke-opacity:1"
           id="path1652" />
      </g>
      <g
         id="g1654"
         transform="translate(613.5596,159.1104)">
        <path
           d="M 0,0 C 1.08,0.899 2.171,1.46 3.28,1.699 V -11.28 c -3.229,0.08 -6.32,0.429 -9.139,1.04 0.54,1.769 1.17,3.41 1.889,4.849 C -2.81,-3.061 -1.439,-1.23 0,0 Z"
           style="fill:none;stroke:#141414;stroke-width:1.523;stroke-linecap:round;stroke-linejoin:round;stroke-miterlimit:10;stroke-dasharray:none;stroke-opacity:1"
           id="path1656" />
      </g>
      <g
         id="g1658"
         transform="translate(616.8398,145.46)">
        <path
           d="m 0,0 v -9.02 h -11.03 c 0.08,3.63 0.53,7.06 1.27,10.14 C -6.74,0.47 -3.45,0.08 0,0 Z"
           style="fill:none;stroke:#141414;stroke-width:1.523;stroke-linecap:round;stroke-linejoin:round;stroke-miterlimit:10;stroke-dasharray:none;stroke-opacity:1"
           id="path1660" />
      </g>
      <g
         id="g1662"
         transform="translate(603.4404,136.4404)">
        <path
           d="m 0,0 h -11.061 c 0.241,5.14 1.981,9.88 4.8,13.79 2.17,-1.25 4.721,-2.301 7.58,-3.08 C 0.54,7.43 0.09,3.81 0,0 Z"
           style="fill:none;stroke:#141414;stroke-width:1.523;stroke-linecap:round;stroke-linejoin:round;stroke-miterlimit:10;stroke-dasharray:none;stroke-opacity:1"
           id="path1664" />
      </g>
      <g
         id="g1666"
         transform="translate(603.4404,134.0801)">
        <path
           d="m 0,0 c 0.09,-3.79 0.55,-7.38 1.319,-10.63 -2.87,-0.8 -5.439,-1.85 -7.609,-3.12 -2.801,3.91 -4.53,8.63 -4.771,13.75 z"
           style="fill:none;stroke:#141414;stroke-width:1.523;stroke-linecap:round;stroke-linejoin:round;stroke-miterlimit:10;stroke-dasharray:none;stroke-opacity:1"
           id="path1668" />
      </g>
      <g
         id="g1670"
         transform="translate(605.7998,134.0801)">
        <path
           d="M 0,0 H 11.04 V -8.93 C 7.58,-9.021 4.28,-9.41 1.25,-10.07 0.521,-7.01 0.07,-3.6 0,0 Z"
           style="fill:none;stroke:#141414;stroke-width:1.523;stroke-linecap:round;stroke-linejoin:round;stroke-miterlimit:10;stroke-dasharray:none;stroke-opacity:1"
           id="path1672" />
      </g>
      <g
         id="g1674"
         transform="translate(616.8398,122.7695)">
        <path
           d="m 0,0 v -13.06 c -1.109,0.241 -2.2,0.8 -3.28,1.71 -2.38,1.981 -4.47,5.63 -5.88,10.3 2.82,0.611 5.91,0.971 9.16,1.05 z"
           style="fill:none;stroke:#141414;stroke-width:1.523;stroke-linecap:round;stroke-linejoin:round;stroke-miterlimit:10;stroke-dasharray:none;stroke-opacity:1"
           id="path1676" />
      </g>
      <g
         id="g1678"
         transform="translate(622.4902,111.4199)">
        <path
           d="M 0,0 C -1.07,-0.91 -2.17,-1.47 -3.28,-1.71 V 11.37 C -0.03,11.311 3.069,10.94 5.899,10.33 5.35,8.521 4.71,6.85 3.979,5.38 2.81,3.05 1.45,1.22 0,0 Z"
           style="fill:none;stroke:#141414;stroke-width:1.523;stroke-linecap:round;stroke-linejoin:round;stroke-miterlimit:10;stroke-dasharray:none;stroke-opacity:1"
           id="path1680" />
      </g>
      <g
         id="g1682"
         transform="translate(619.21,125.1396)">
        <path
           d="M 0,0 V 8.94 H 11.03 C 10.95,5.351 10.521,1.95 9.79,-1.1 6.76,-0.449 3.46,-0.069 0,0 Z"
           style="fill:none;stroke:#141414;stroke-width:1.523;stroke-linecap:round;stroke-linejoin:round;stroke-miterlimit:10;stroke-dasharray:none;stroke-opacity:1"
           id="path1684" />
      </g>
      <g
         id="g1686"
         transform="translate(637.4102,152.0801)">
        <path
           d="M 0,0 C -1.9,-1.05 -4.19,-1.95 -6.75,-2.66 -7.33,-0.72 -8.021,1.09 -8.83,2.7 -9.851,4.74 -11.04,6.49 -12.391,7.88 -8.11,6.67 -4.29,4.39 -1.23,1.34 -0.8,0.91 -0.391,0.46 0,0 Z"
           style="fill:none;stroke:#141414;stroke-width:1.523;stroke-linecap:round;stroke-linejoin:round;stroke-miterlimit:10;stroke-dasharray:none;stroke-opacity:1"
           id="path1688" />
      </g>
      <g
         id="g1690"
         transform="translate(611.04,159.96)">
        <path
           d="m 0,0 c -2.4,-2.479 -4.33,-6.13 -5.65,-10.52 -2.15,0.59 -4.1,1.32 -5.79,2.17 -0.331,0.16 -0.62,0.34 -0.93,0.51 0.39,0.44 0.79,0.88 1.2,1.3 C -8.11,-3.49 -4.28,-1.2 0,0 Z"
           style="fill:none;stroke:#141414;stroke-width:1.523;stroke-linecap:round;stroke-linejoin:round;stroke-miterlimit:10;stroke-dasharray:none;stroke-opacity:1"
           id="path1692" />
      </g>
      <g
         id="g1694"
         transform="translate(598.6396,118.4404)">
        <path
           d="M 0,0 C 0.33,0.189 0.641,0.38 1,0.55 2.681,1.39 4.62,2.119 6.74,2.71 7.33,0.75 8.021,-1.07 8.83,-2.7 9.86,-4.74 11.051,-6.49 12.391,-7.881 8.12,-6.681 4.29,-4.391 1.23,-1.33 0.801,-0.9 0.391,-0.46 0,0 Z"
           style="fill:none;stroke:#141414;stroke-width:1.523;stroke-linecap:round;stroke-linejoin:round;stroke-miterlimit:10;stroke-dasharray:none;stroke-opacity:1"
           id="path1696" />
      </g>
      <g
         id="g1698"
         transform="translate(625.0195,110.5596)">
        <path
           d="M 0,0 C 2.421,2.5 4.36,6.19 5.681,10.62 8.25,9.91 10.54,9 12.45,7.95 12.04,7.471 11.61,6.99 11.16,6.551 8.101,3.49 4.28,1.2 0,0 Z"
           style="fill:none;stroke:#141414;stroke-width:1.523;stroke-linecap:round;stroke-linejoin:round;stroke-miterlimit:10;stroke-dasharray:none;stroke-opacity:1"
           id="path1700" />
      </g>
    </g>
  </g>
</svg>
